<?xml version="1.0" encoding="utf-8"?>
<!-- Generator: Adobe Illustrator 16.0.0, SVG Export Plug-In . SVG Version: 6.00 Build 0)  -->
<!DOCTYPE svg PUBLIC "-//W3C//DTD SVG 1.1//EN" "http://www.w3.org/Graphics/SVG/1.1/DTD/svg11.dtd">
<svg version="1.1" id="Layer_1" xmlns="http://www.w3.org/2000/svg" xmlns:xlink="http://www.w3.org/1999/xlink" x="0px" y="0px"
	 width="150px" height="142px" viewBox="0 0 150 142" enable-background="new 0 0 150 142" xml:space="preserve">
<linearGradient id="SVGID_1_" gradientUnits="userSpaceOnUse" x1="-878.6724" y1="607.5049" x2="-876.8083" y2="605.5162" gradientTransform="matrix(48.2045 0 0 -47.5848 42417.5898 28918.7383)">
	<stop  offset="0" style="stop-color:#006400"/>
	<stop  offset="1" style="stop-color:#006400"/>
</linearGradient>
<path fill="url(#SVGID_1_)" d="M149.316,102.625c0.066-0.651,0.115-1.309,0.152-1.97c0.045-0.782-47.078-45.493-47.078-45.493
	h-1.126C101.265,55.162,149.027,105.543,149.316,102.625L149.316,102.625L149.316,102.625z"/>
<linearGradient id="SVGID_2_" gradientUnits="userSpaceOnUse" x1="-873.4502" y1="604.0586" x2="-869.8848" y2="600.5812" gradientTransform="matrix(23.4975 0 0 -23.6153 20511.3594 14293.3291)">
	<stop  offset="0" style="stop-color:#006400"/>
	<stop  offset="1" style="stop-color:#006400"/>
</linearGradient>
<path fill="url(#SVGID_2_)" d="M48.778,87.115c-0.062,0.137-0.125,0.274-0.188,0.411c-0.067,0.144-0.136,0.287-0.204,0.429
	c-1.502,3.133,21.029,25.158,22.841,22.483c0.083-0.118,0.166-0.243,0.248-0.362c0.092-0.14,0.182-0.273,0.272-0.414
	C73.196,107.462,49.421,85.685,48.778,87.115L48.778,87.115L48.778,87.115z"/>
<linearGradient id="SVGID_3_" gradientUnits="userSpaceOnUse" x1="-873.3755" y1="604.0645" x2="-870.2033" y2="600.4276" gradientTransform="matrix(23.9824 0 0 -23.3355 20971.6094 14153.2695)">
	<stop  offset="0" style="stop-color:#006400"/>
	<stop  offset="1" style="stop-color:#006400"/>
</linearGradient>
<path fill="url(#SVGID_3_)" d="M80.617,118.09c-0.064,0.14-0.518,0.906-0.932,1.312c-0.07,0.141,21.995,22.023,21.995,22.023h1.987
	C103.669,141.425,82.955,119.016,80.617,118.09L80.617,118.09L80.617,118.09z"/>
<path fill="#4F6B85" d="M149.5,100.258c-1.031,22.876-19.957,41.167-43.079,41.167h-3.126l-23.091-22.748
	c1.899-2.679,3.665-5.454,5.237-8.348h20.979c6.636,0,12.034-5.396,12.034-12.034c0-6.636-5.398-12.035-12.034-12.035H94.006
	c0.945-5.001,1.463-10.157,1.463-15.432c0-5.356-0.526-10.585-1.506-15.666h7.711l47.69,46.99
	C149.421,101.523,149.466,100.894,149.5,100.258L149.5,100.258L149.5,100.258z M12.544,0H0v31.096h12.544
	c21.91,0,39.736,17.822,39.736,39.732c0,5.96-1.329,11.619-3.691,16.699l22.885,22.55c7.514-11.242,11.906-24.74,11.906-39.249
	C83.381,31.774,51.603,0,12.544,0L12.544,0L12.544,0z"/>
<path fill="#4F6B85" d="M106.421,0H55.624c12.407,7.575,22.681,18.316,29.681,31.096h21.116c6.636,0,12.034,5.396,12.034,12.035
	c0,6.637-5.398,12.033-12.034,12.033h-4.745l47.69,46.99c0.112-1.274,0.183-2.557,0.183-3.859c0-10.483-3.762-20.1-10.008-27.584
	c6.246-7.481,10.008-17.099,10.008-27.58C149.549,19.35,130.203,0,106.421,0L106.421,0L106.421,0z"/>
<path fill="#4F6B85" d="M103.295,141.425H55.986c9.523-5.881,17.755-13.645,24.218-22.748L103.295,141.425L103.295,141.425z
	 M71.475,110.076l-22.884-22.55c-6.322,13.587-20.099,23.036-36.046,23.036H0v31.094h12.544
	C37.094,141.656,58.762,129.099,71.475,110.076L71.475,110.076L71.475,110.076z"/>
</svg>
