<?xml version="1.0" encoding="utf-8"?>
<!-- Generator: Adobe Illustrator 16.0.0, SVG Export Plug-In . SVG Version: 6.00 Build 0)  -->
<!DOCTYPE svg PUBLIC "-//W3C//DTD SVG 1.1//EN" "http://www.w3.org/Graphics/SVG/1.1/DTD/svg11.dtd">
<svg version="1.1" id="Layer_1" xmlns="http://www.w3.org/2000/svg" xmlns:xlink="http://www.w3.org/1999/xlink" x="0px" y="0px"
	 width="1920px" height="1080px" viewBox="0 0 1920 1080" enable-background="new 0 0 1920 1080" xml:space="preserve">
<g>
	<g>
		<path fill="#748799" d="M571.237,183.248l748.515,748.515c8.555-8.021,16.575-16.04,24.595-24.595L595.832,158.653
			C587.277,166.673,579.258,174.693,571.237,183.248z"/>
		<path fill="#748799" d="M679.237,94.495l729.268,729.268c6.416-10.159,12.297-20.852,18.179-31.545L710.782,76.852
			C700.089,82.198,689.396,88.079,679.237,94.495z"/>
		<path fill="#748799" d="M898.98,19.109l584.91,584.911c1.604-14.97,2.674-30.475,3.209-45.979L944.961,15.901
			C929.455,15.901,914.485,16.97,898.98,19.109z"/>
		<path fill="#748799" d="M622.029,135.663l745.308,745.308c7.485-9.09,14.436-18.179,21.386-27.803L649.832,114.277
			C640.208,121.228,631.119,128.178,622.029,135.663z"/>
		<path fill="#748799" d="M1117.119,39.96l345.92,345.92c-9.089-28.871-20.851-57.208-34.752-83.94L1201.06,74.713
			C1174.326,60.812,1146.524,49.049,1117.119,39.96z"/>
		<path fill="#748799" d="M995.752,16.97l490.277,490.277c-1.604-19.247-3.742-37.96-6.95-56.138L1051.891,23.921
			C1033.178,20.713,1014.465,18.04,995.752,16.97z"/>
		<path fill="#748799" d="M526.861,237.248l738.891,738.891c9.624-6.95,18.713-13.901,27.803-21.386L548.248,209.445
			C540.763,218.535,533.812,227.624,526.861,237.248z"/>
		<path fill="#748799" d="M743.931,60.812l698.258,698.257c5.347-11.763,9.623-22.99,13.9-35.287L779.218,46.376
			C766.921,50.653,755.158,55.465,743.931,60.812z"/>
		<path fill="#748799" d="M816.644,34.614l651.742,651.743c3.743-12.832,6.951-26.198,9.09-40.099L856.208,25.525
			C842.842,28.198,829.476,30.871,816.644,34.614z"/>
		<path fill="#748799" d="M488.901,298.198l715.9,715.9c10.693-5.881,20.852-11.762,31.545-18.178L507.079,266.653
			C500.663,277.347,494.782,287.505,488.901,298.198z"/>
		<path fill="#748799" d="M487.297,788.476l227.228,227.228c26.733,13.9,54.535,25.663,83.94,34.752l-345.92-345.921
			C461.634,733.94,473.396,761.742,487.297,788.476z"/>
		<path fill="#748799" d="M436.505,639.307l427.188,427.188c18.178,3.208,37.426,5.881,56.139,6.95L429.555,583.168
			C430.624,602.416,433.297,621.129,436.505,639.307z"/>
		<path fill="#748799" d="M428.485,532.911l542.139,542.139c15.505-0.535,31.01-1.604,45.979-3.208L431.158,486.396
			C429.555,501.901,428.485,517.406,428.485,532.911z"/>
		<path fill="#748799" d="M437.574,443.624l621.268,621.267c13.366-2.673,26.732-5.881,40.099-9.089L447.198,404.06
			C443.455,416.891,440.247,430.258,437.574,443.624z"/>
		<path fill="#748799" d="M458.96,366.634l677.406,677.405c11.763-4.276,23.524-9.089,35.287-13.9L472.861,331.347
			C468.05,343.109,463.237,354.871,458.96,366.634z"/>
		<path fill="#59748F" d="M1201.06,74.713l227.228,227.228C1378.029,204.634,1298.366,124.97,1201.06,74.713z"/>
		<path fill="#59748F" d="M1051.891,23.921l427.188,427.188c-3.742-22.456-9.624-43.842-16.04-65.229l-345.92-345.92
			C1095.732,33.544,1074.347,27.664,1051.891,23.921z"/>
		<path fill="#59748F" d="M957.792,15.366c-4.277,0-8.555,0-12.831,0L1487.1,558.04c0-4.277,0-8.555,0-12.832
			c0-12.832-0.535-25.129-1.604-37.961L995.752,16.97C982.921,15.901,970.624,15.366,957.792,15.366z"/>
		<path fill="#59748F" d="M856.208,25.525l621.268,621.267c2.673-13.901,4.812-28.337,6.415-42.772L898.98,19.109
			C884.545,20.178,870.109,22.852,856.208,25.525z"/>
		<path fill="#59748F" d="M779.218,46.376l677.406,677.406c4.277-12.297,8.554-24.594,11.762-37.426L816.644,34.614
			C803.812,38.356,791.515,42.099,779.218,46.376z"/>
		<path fill="#59748F" d="M710.782,76.852l715.366,715.366c5.881-10.693,11.228-21.921,16.04-33.148L743.931,60.812
			C732.703,65.624,721.476,70.97,710.782,76.852z"/>
		<path fill="#59748F" d="M649.832,114.277l738.891,738.891c6.951-9.623,13.366-19.247,19.782-29.405L679.237,94.495
			C669.079,100.911,659.455,107.327,649.832,114.277z"/>
		<path fill="#59748F" d="M595.832,158.653l748.515,748.515c8.02-8.554,15.505-17.108,22.99-26.197L622.029,135.663
			C612.94,143.148,604.386,150.634,595.832,158.653z"/>
		<path fill="#59748F" d="M548.248,209.445l745.307,745.308c9.089-7.485,17.644-14.971,26.197-22.99L571.237,183.248
			C563.218,191.802,555.732,200.356,548.248,209.445z"/>
		<path fill="#59748F" d="M507.079,266.653l729.268,729.268c10.158-6.416,19.782-12.832,29.405-19.782L526.861,237.248
			C519.911,246.871,513.495,257.03,507.079,266.653z"/>
		<path fill="#59748F" d="M472.861,331.347l698.792,698.792c11.228-4.812,22.456-10.158,33.148-16.04l-715.9-715.9
			C483.555,308.891,478.208,320.119,472.861,331.347z"/>
		<path fill="#59748F" d="M447.198,404.06l651.742,651.742c12.832-3.742,25.129-7.485,37.426-11.762L458.96,366.634
			C454.684,378.931,450.406,391.228,447.198,404.06z"/>
		<path fill="#59748F" d="M431.158,486.396l584.911,584.91c14.436-1.604,28.871-3.742,42.772-6.416L437.574,443.624
			C434.901,458.06,432.763,471.96,431.158,486.396z"/>
		<path fill="#59748F" d="M427.95,545.208c0,12.832,0.535,25.129,1.604,37.96l490.277,490.277
			c12.297,1.069,25.129,1.604,37.96,1.604c4.277,0,8.555,0,12.297,0L428.485,532.911C427.95,536.653,427.95,540.931,427.95,545.208z
			"/>
		<path fill="#59748F" d="M452.545,704.534l345.92,345.921c21.387,6.951,43.308,12.297,65.229,16.04L436.505,639.307
			C440.247,661.763,445.594,683.684,452.545,704.534z"/>
		<path fill="#59748F" d="M714.524,1015.703L487.297,788.476C537.555,885.782,617.218,965.445,714.524,1015.703z"/>
	</g>
	<path fill="#2D4F70" d="M961,70.436c259.842,0,471.564,211.723,471.564,471.564S1220.842,1013.564,961,1013.564
		S489.436,801.842,489.436,542S701.158,70.436,961,70.436 M961,7.347C665.871,7.347,426.347,246.871,426.347,542
		S665.871,1076.653,961,1076.653S1495.653,837.129,1495.653,542S1256.129,7.347,961,7.347L961,7.347z"/>
</g>
<g id="Layer_1_1_">
</g>
<g id="Layer_3">
</g>
<path fill="none" d="M904.396,268.931c-21.387-0.535-38.495,3.208-48.119,5.881v20.851l48.119,4.812V268.931z"/>
<path fill="none" d="M933.802,303.683l48.119,4.812v-18.713c-16.574-9.089-33.148-14.436-48.119-17.644V303.683z"/>
<path fill="none" d="M1231.069,463.545l-18.713,9.623v292.456c0,22.99,28.337,21.386,28.337,2.139
	c0-14.971,0.534-62.555,0.534-62.555v-332.02c0-9.624-7.485-17.644-17.108-18.713l-154.516-16.04h-10.692v-1.604l-48.119-4.813
	v26.198l184.456,19.247c9.623,1.069,17.108,9.09,17.108,18.713v43.842l5.347-2.673L1231.069,463.545z"/>
<polygon fill="none" points="856.812,342.178 981.921,355.545 981.921,328.812 856.812,315.98 "/>
<path fill="none" d="M933.802,229.901v12.297c21.921,3.742,45.446,11.762,70.04,26.198l6.95,4.277v38.495l48.119,4.813v-70.575
	C1004.376,215.465,953.584,224.555,933.802,229.901z"/>
<path fill="#2D4F70" d="M1277.584,339.505l-189.268-19.782v-91.426l-6.95-4.277c-86.079-51.326-164.673-19.247-167.881-18.178
	l-9.089,3.742v29.941c-39.03-1.069-66.298,10.158-68.436,11.228l-9.09,3.743v37.96l-107.465-11.228
	c-10.693-1.069-20.317,7.485-20.852,18.178l128.316,13.367v26.198l-189.802-19.782c-11.228-1.069-20.852,7.484-20.852,18.713v35.287
	l235.247,161.465c3.208-7.485,11.229-12.297,20.317-11.763l96.237,9.09c11.229,1.069,19.782,10.158,20.317,21.386l224.02-113.347
	v-43.841c0-9.624-7.485-17.644-17.108-18.713l-183.922-19.248V332.02l48.119,4.813v1.069h10.693l154.515,16.039
	c9.624,1.069,17.109,9.089,17.109,18.713v332.02c0,0-0.535,48.119-0.535,62.555c0,18.713-28.337,20.317-28.337-2.139V472.634
	L988.871,585.98v27.268c0,11.228-8.555,19.781-19.782,19.781c-0.534,0-1.604,0-2.139,0l-96.237-9.089
	c-11.763-1.069-20.852-11.228-20.852-22.455v-32.079L616.752,409.01v310.634c0,6.416,3.208,11.763,8.021,15.505
	c10.158,22.455,32.079,41.168,73.782,46.515c65.228,8.555,451.247,57.208,497.762,59.347c44.377,2.139,92.495-39.564,97.308-97.842
	c0.534-1.069,0.534-2.673,0.534-4.277V358.218C1294.158,348.594,1287.208,340.574,1277.584,339.505z M856.812,274.812
	c9.624-2.673,26.733-6.416,48.119-5.881v31.544l-48.119-4.812V274.812z M981.921,308.495l-48.119-4.812v-31.544
	c14.971,3.208,31.545,8.554,48.119,17.644V308.495z M981.921,355.545l-125.109-13.367V315.98l125.109,12.831V355.545z
	 M1011.326,311.703v-39.03l-6.95-4.277c-24.594-14.436-48.653-22.456-70.039-26.198v-12.297
	c19.782-5.346,70.574-14.436,125.108,14.97v71.644L1011.326,311.703z"/>
<path fill="#2D4F70" d="M862.158,600.95c0,5.347,4.277,9.624,9.624,10.159l96.237,9.089c4.813,0.534,8.02-2.674,8.02-7.485v-58.812
	c0-5.347-4.276-9.624-9.623-10.159l-96.238-9.089c-0.534,0-0.534,0-1.068,0c-4.277,0-7.485,3.208-7.485,7.485L862.158,600.95
	L862.158,600.95z"/>
<rect x="2318.02" y="527.703" fill="#006400" width="99.445" height="99.445"/>
</svg>
