<?xml version="1.0" encoding="utf-8"?>
<!-- Generator: Adobe Illustrator 16.0.0, SVG Export Plug-In . SVG Version: 6.00 Build 0)  -->
<!DOCTYPE svg PUBLIC "-//W3C//DTD SVG 1.1//EN" "http://www.w3.org/Graphics/SVG/1.1/DTD/svg11.dtd">
<svg version="1.1" id="Layer_1" xmlns="http://www.w3.org/2000/svg" xmlns:xlink="http://www.w3.org/1999/xlink" x="0px" y="0px"
	 width="1920px" height="1080px" viewBox="0 0 1920 1080" enable-background="new 0 0 1920 1080" xml:space="preserve">
<g id="Layer_1_1_">
</g>
<g id="Layer_3">
</g>
<g>
	<g>
		<path fill="#748799" d="M570.237,181.248l748.515,748.515c8.555-8.021,16.575-16.04,24.595-24.595L594.832,156.653
			C586.277,164.673,578.258,172.693,570.237,181.248z"/>
		<path fill="#748799" d="M678.237,92.495l729.268,729.268c6.416-10.159,12.297-20.852,18.179-31.545L709.782,74.852
			C699.089,80.198,688.396,86.079,678.237,92.495z"/>
		<path fill="#748799" d="M897.98,17.109l584.91,584.911c1.604-14.97,2.674-30.475,3.209-45.979L943.961,13.901
			C928.455,13.901,913.485,14.97,897.98,17.109z"/>
		<path fill="#748799" d="M621.029,133.663l745.308,745.308c7.485-9.09,14.436-18.179,21.386-27.803L648.832,112.277
			C639.208,119.228,630.119,126.178,621.029,133.663z"/>
		<path fill="#748799" d="M1116.119,37.96l345.92,345.92c-9.089-28.871-20.851-57.208-34.752-83.94L1200.06,72.713
			C1173.326,58.812,1145.524,47.049,1116.119,37.96z"/>
		<path fill="#748799" d="M994.752,14.97l490.277,490.277c-1.604-19.247-3.742-37.96-6.95-56.138L1050.891,21.921
			C1032.178,18.713,1013.465,16.04,994.752,14.97z"/>
		<path fill="#748799" d="M525.861,235.248l738.891,738.891c9.624-6.95,18.713-13.901,27.803-21.386L547.248,207.445
			C539.763,216.535,532.812,225.624,525.861,235.248z"/>
		<path fill="#748799" d="M742.931,58.812l698.258,698.257c5.347-11.763,9.623-22.99,13.9-35.287L778.218,44.376
			C765.921,48.653,754.158,53.465,742.931,58.812z"/>
		<path fill="#748799" d="M815.644,32.614l651.742,651.743c3.743-12.832,6.951-26.198,9.09-40.099L855.208,23.525
			C841.842,26.198,828.476,28.871,815.644,32.614z"/>
		<path fill="#748799" d="M487.901,296.198l715.9,715.9c10.693-5.881,20.852-11.762,31.545-18.178L506.079,264.653
			C499.663,275.347,493.782,285.505,487.901,296.198z"/>
		<path fill="#748799" d="M486.297,786.476l227.228,227.228c26.733,13.9,54.535,25.663,83.94,34.752l-345.92-345.921
			C460.634,731.94,472.396,759.742,486.297,786.476z"/>
		<path fill="#748799" d="M435.505,637.307l427.188,427.188c18.178,3.208,37.426,5.881,56.139,6.95L428.555,581.168
			C429.624,600.416,432.297,619.129,435.505,637.307z"/>
		<path fill="#748799" d="M427.485,530.911l542.139,542.139c15.505-0.535,31.01-1.604,45.979-3.208L430.158,484.396
			C428.555,499.901,427.485,515.406,427.485,530.911z"/>
		<path fill="#748799" d="M436.574,441.624l621.268,621.267c13.366-2.673,26.732-5.881,40.099-9.089L446.198,402.06
			C442.455,414.891,439.247,428.258,436.574,441.624z"/>
		<path fill="#748799" d="M457.96,364.634l677.406,677.405c11.763-4.276,23.524-9.089,35.287-13.9L471.861,329.347
			C467.05,341.109,462.237,352.871,457.96,364.634z"/>
		<path fill="#59748F" d="M1200.06,72.713l227.228,227.228C1377.029,202.634,1297.366,122.97,1200.06,72.713z"/>
		<path fill="#59748F" d="M1050.891,21.921l427.188,427.188c-3.742-22.456-9.624-43.842-16.04-65.229l-345.92-345.92
			C1094.732,31.544,1073.347,25.664,1050.891,21.921z"/>
		<path fill="#59748F" d="M956.792,13.366c-4.277,0-8.555,0-12.831,0L1486.1,556.04c0-4.277,0-8.555,0-12.832
			c0-12.832-0.535-25.129-1.604-37.961L994.752,14.97C981.921,13.901,969.624,13.366,956.792,13.366z"/>
		<path fill="#59748F" d="M855.208,23.525l621.268,621.267c2.673-13.901,4.812-28.337,6.415-42.772L897.98,17.109
			C883.545,18.178,869.109,20.852,855.208,23.525z"/>
		<path fill="#59748F" d="M778.218,44.376l677.406,677.406c4.277-12.297,8.554-24.594,11.762-37.426L815.644,32.614
			C802.812,36.356,790.515,40.099,778.218,44.376z"/>
		<path fill="#59748F" d="M709.782,74.852l715.366,715.366c5.881-10.693,11.228-21.921,16.04-33.148L742.931,58.812
			C731.703,63.624,720.476,68.97,709.782,74.852z"/>
		<path fill="#59748F" d="M648.832,112.277l738.891,738.891c6.951-9.623,13.366-19.247,19.782-29.405L678.237,92.495
			C668.079,98.911,658.455,105.327,648.832,112.277z"/>
		<path fill="#59748F" d="M594.832,156.653l748.515,748.515c8.02-8.554,15.505-17.108,22.99-26.197L621.029,133.663
			C611.94,141.148,603.386,148.634,594.832,156.653z"/>
		<path fill="#59748F" d="M547.248,207.445l745.307,745.308c9.089-7.485,17.644-14.971,26.197-22.99L570.237,181.248
			C562.218,189.802,554.732,198.356,547.248,207.445z"/>
		<path fill="#59748F" d="M506.079,264.653l729.268,729.268c10.158-6.416,19.782-12.832,29.405-19.782L525.861,235.248
			C518.911,244.871,512.495,255.03,506.079,264.653z"/>
		<path fill="#59748F" d="M471.861,329.347l698.792,698.792c11.228-4.812,22.456-10.158,33.148-16.04l-715.9-715.9
			C482.555,306.891,477.208,318.119,471.861,329.347z"/>
		<path fill="#59748F" d="M446.198,402.06l651.742,651.742c12.832-3.742,25.129-7.485,37.426-11.762L457.96,364.634
			C453.684,376.931,449.406,389.228,446.198,402.06z"/>
		<path fill="#59748F" d="M430.158,484.396l584.911,584.91c14.436-1.604,28.871-3.742,42.772-6.416L436.574,441.624
			C433.901,456.06,431.763,469.96,430.158,484.396z"/>
		<path fill="#59748F" d="M426.95,543.208c0,12.832,0.535,25.129,1.604,37.96l490.277,490.277
			c12.297,1.069,25.129,1.604,37.96,1.604c4.277,0,8.555,0,12.297,0L427.485,530.911C426.95,534.653,426.95,538.931,426.95,543.208z
			"/>
		<path fill="#59748F" d="M451.545,702.534l345.92,345.921c21.387,6.951,43.308,12.297,65.229,16.04L435.505,637.307
			C439.247,659.763,444.594,681.684,451.545,702.534z"/>
		<path fill="#59748F" d="M713.524,1013.703L486.297,786.476C536.555,883.782,616.218,963.445,713.524,1013.703z"/>
	</g>
	<path fill="#2D4F70" d="M960,68.436c259.842,0,471.564,211.723,471.564,471.564S1219.842,1011.564,960,1011.564
		S488.436,799.842,488.436,540S700.158,68.436,960,68.436 M960,5.347C664.871,5.347,425.347,244.871,425.347,540
		S664.871,1074.653,960,1074.653S1494.653,835.129,1494.653,540S1255.129,5.347,960,5.347L960,5.347z"/>
</g>
<path fill="none" d="M943.426,643.188c1.604-5.347,3.742-10.693,5.347-16.04c-4.812,0-9.089,0-12.297,0v18.179
	C938.079,644.792,940.218,643.723,943.426,643.188z"/>
<path fill="none" d="M1025.228,695.584c-6.416,1.604-12.831,3.208-19.247,4.813l-2.674,9.623
	C1009.723,705.742,1017.208,700.931,1025.228,695.584z"/>
<path fill="none" d="M860.555,649.604c0-9.623,0-19.247,0-28.336l-9.09-2.674C854.139,628.753,857.347,639.445,860.555,649.604z"/>
<path fill="none" d="M758.971,595.069L758.971,595.069c0,0-8.021-2.139-15.506-2.139h-1.068c-3.743,0-11.229,1.069-18.713,2.673
	c14.436,11.763,25.128,24.595,32.613,36.357c5.347,3.742,9.089,8.554,11.228,11.762l0.535,0.535
	c2.139,2.673,12.297,17.108,23.524,34.218c-5.347-20.852-11.762-43.842-16.574-63.09v-0.534v-0.535
	c-0.534-3.207-1.604-9.089-2.139-16.039L758.971,595.069L758.971,595.069z"/>
<path fill="none" d="M1004.376,550.693v-2.139c-4.812-1.604-10.158-3.208-15.505-4.813c-1.069,2.674-1.604,4.813-2.139,6.951
	H1004.376z"/>
<path fill="none" d="M865.366,546.416c1.604-3.208,3.208-5.881,5.882-8.555c1.604-1.604,3.207-3.208,5.346-4.812l-50.257,0.534
	C839.168,537.861,853.069,542.139,865.366,546.416z"/>
<path fill="none" d="M942.356,430.931L942.356,430.931c0.534-2.139,2.139-10.158,2.139-16.574c0-3.742-1.069-11.228-2.673-18.713
	c-2.139,2.139-3.743,4.277-5.882,6.416c0,17.108-11.228,29.405-33.148,35.821c-5.881,1.604-34.218,10.693-62.555,19.248
	c33.149,0,67.366-0.535,71.644-0.535c1.069,0,2.139,0,4.277,0c3.208,0,6.416,0,10.158,0.535c2.674-1.069,5.882-2.139,9.09-2.674
	L942.356,430.931L942.356,430.931z"/>
<path fill="#336699" d="M586.277,587.584c12.832,19.782,42.772,37.426,52.931,41.703s37.96,13.366,66.297,41.168
	c0.534,0.535,1.604,1.604,2.139,2.139c-2.673-8.02-3.742-16.574-1.604-24.059c1.604-7.485,5.881-13.367,12.831-17.109
	c5.347-3.208,10.158-4.812,15.505-5.347c-9.089-11.228-21.921-22.455-39.029-32.613l11.763-9.624c0,0,25.128-5.881,35.821-5.881
	c0.534,0,1.069,0,1.069,0c10.158,0,19.782,2.673,19.782,2.673l10.158,2.673c1.069-5.881,2.674-12.297,5.882-17.108
	c4.277-6.416,10.158-10.158,17.644-11.228c2.673-0.535,5.347-0.535,8.02-0.535c26.732,0,34.218,25.129,36.356,33.148
	c0.534,2.139,2.139,7.485,4.812,15.505l14.436,3.743c0-14.436,0-25.664,0-27.803c0-2.673-0.534-9.623,1.069-17.644
	c-33.148-11.228-75.386-24.594-83.405-27.267c-13.901-4.277,1.604-14.436,1.604-14.436l138.476-1.604
	c-9.09-8.02-16.574-21.386-10.158-39.564c0.534-2.139,1.604-4.277,2.673-5.881c-14.436,0-104.258,1.069-129.921,1.069
	c-2.673,0-4.277,0-5.881,0c-14.436,0-2.139-9.624-2.139-9.624s29.94-9.089,60.95-18.713c-5.881-2.673-14.436-7.485-18.713-16.574
	c-3.742-6.95-3.742-14.97-0.534-22.455c0-0.535,0.534-1.069,0.534-1.604c-28.871,7.485-57.208,14.971-61.485,16.04
	c-1.069,0-2.139,0.534-3.207,0.534c-5.347,0-4.277-4.812-4.277-4.812s84.475-58.812,90.355-63.089
	c5.882-4.813,18.713-13.901,9.09-30.476c-2.674-4.277-6.951-5.881-12.297-5.881c-14.436,0-34.219,12.831-34.219,12.831
	s-72.178,43.842-79.128,47.584c-5.882,3.208-9.624,3.743-11.228,3.743h-0.535l-56.139,3.742
	c-75.921,12.832-95.703,49.723-95.703,49.723l-62.02-0.534c-10.158,42.237-13.901,85.545-12.297,128.316l83.94-4.812
	C566.495,558.178,573.445,567.802,586.277,587.584z"/>
<path fill="#2D4F70" d="M912.416,457.129c-4.277,0-38.495,0.534-71.644,0.534c28.337-9.089,57.208-17.644,62.554-19.247
	c21.922-6.416,32.614-18.713,33.149-35.822c-37.961,41.703-81.268,44.377-90.892,44.377c-1.069,0-1.604,0-1.604,0h-1.604
	l-1.604-0.535c-1.069-0.534-3.208-1.069-6.416-2.139c-31.01,9.624-60.95,18.713-60.95,18.713s-12.297,9.624,2.139,9.624
	c1.069,0,3.207,0,5.881,0c25.663,0,115.485-0.535,129.921-1.069c3.742-6.95,9.089-11.763,16.039-14.436
	c-3.742-0.535-6.95-0.535-10.158-0.535C914.555,457.129,912.95,457.129,912.416,457.129z"/>
<path fill="#2D4F70" d="M850.931,619.129l9.089,2.673c0-5.347,0-10.692,0-15.505l-14.436-3.742
	C847.188,607.366,849.327,612.713,850.931,619.129z"/>
<path fill="#2D4F70" d="M652.574,384.95l56.139-4.277c0,0,0,0,0.535,0c1.068,0,5.346-0.534,11.228-3.742
	c6.95-4.277,79.128-47.584,79.128-47.584s19.782-12.832,34.219-12.832c5.346,0,9.623,1.604,12.297,5.882
	c9.623,16.574-3.208,26.197-9.09,30.475c-5.881,4.813-90.355,62.02-90.355,62.02s-1.07,4.813,4.276,4.813
	c1.069,0,1.604,0,3.208-0.535c4.277-1.069,32.614-8.554,61.485-16.039c4.812-10.693,10.158-14.436,17.108-17.644
	c2.139-1.069,4.277-2.139,7.485-4.277c-9.089,2.673-18.713,4.812-27.802,7.485c17.109-11.763,31.545-21.921,34.218-23.525
	l0.535-0.534c23.524-18.179,19.782-36.892,12.297-49.723c-4.812-8.555-13.901-13.367-25.129-13.367
	c-17.644,0-37.96,12.297-42.237,14.97c-25.129,14.971-73.248,44.376-78.595,47.584c-1.604,1.069-2.673,1.604-3.742,1.604h-0.534
	h-1.07l-56.138,4.277h-0.535h-0.534c-61.485,10.692-89.822,36.356-100.516,49.723l-50.792-0.535
	c-1.069,4.813-2.673,10.159-3.742,14.971l62.02,0.534C556.871,434.673,576.653,397.782,652.574,384.95z"/>
<path fill="#2D4F70" d="M777.684,533.584c8.02,2.139,49.723,16.04,83.405,27.268c1.069-4.812,2.139-9.624,4.813-14.436
	c-12.298-4.277-26.198-8.555-39.03-12.832l50.258-0.534c5.347-3.743,11.762-5.882,18.713-5.882l0,0c0.534,0,1.604,0,2.673,0
	c7.485,0.535,13.366,2.139,17.644,4.813l3.743-13.366c-0.535-0.535-1.069-0.535-1.604-1.069l-138.475,1.604
	C779.822,519.148,763.782,529.307,777.684,533.584z"/>
<path fill="#2D4F70" d="M743.465,577.96c-0.534,0-1.068,0-1.068,0c-10.693,0.535-35.822,5.882-35.822,5.882l-11.763,9.623
	c17.109,10.159,29.94,21.387,39.03,32.614c1.069,0,2.673-0.534,3.742-0.534c8.02,0,13.901,2.673,19.248,6.415
	c-7.485-12.297-18.179-24.594-32.614-36.356c7.485-1.604,14.971-2.673,18.713-2.673H744c7.485,0,15.505,2.139,15.505,2.139l0,0l0,0
	l13.366,3.742c0-4.812,0-10.158,0.535-15.505l-10.158-2.673C762.713,580.634,753.089,577.96,743.465,577.96z"/>
<path fill="#2D4F70" d="M719.94,698.792c-2.673-4.277-8.555-14.436-12.297-26.198c-0.534-0.534-1.604-1.604-2.139-2.139
	c-28.337-27.802-56.139-36.891-66.297-41.168s-40.099-21.921-52.931-41.703c-12.832-19.247-19.782-29.406-19.782-29.406
	l-83.94,4.813c0,4.812,0.534,10.158,1.069,14.97l75.386-4.276c3.208,4.812,8.02,12.297,14.436,21.92
	c14.971,23.525,49.188,42.772,59.882,47.05c1.069,0.535,2.138,1.069,3.742,1.604c11.228,4.277,34.218,13.366,57.742,36.891
	c12.832,12.832,16.04,19.248,18.713,24.06c3.743,7.485,7.485,13.366,19.248,17.644c0.534,0.534,1.604,0.534,2.139,0.534
	C729.029,714.297,723.684,705.742,719.94,698.792z"/>
<path fill="#59748F" d="M950.376,258.238c-19.782,12.832-37.426,42.772-41.703,52.93c-4.276,10.159-13.366,37.961-41.168,66.297
	c-27.802,28.337-32.614,17.109-39.029,33.149C822.06,426.119,844.515,432,844.515,432s0.535,0,1.069,0
	c8.02,0,61.485-2.673,98.911-65.228l9.624,11.762c0,0,5.881,25.129,5.881,35.822c0.535,10.693-2.674,20.852-2.674,20.852
	l-5.346,20.852c1.069,0,2.139,0.534,2.673,0.534l44.376,11.763c2.674-9.089,4.813-15.505,5.882-18.179
	c1.069-4.276,3.208-5.881,4.812-5.881c4.277,0,9.624,7.485,9.624,7.485v21.921L1065.326,486c0-18.713,0-33.684,0-38.495
	c0-5.347,1.604-6.95,3.209-6.95c2.673,0,6.95,4.812,6.95,4.812s6.416,20.852,14.436,45.445c1.604,0,3.208,0.535,4.812,0.535h1.069
	c3.743,0,11.228-1.069,18.713-2.674c-52.931-42.771-51.326-95.702-51.326-98.376v-1.604l0.534-1.604
	c2.674-10.158,12.297-27.802,30.476-27.802l0,0c3.742,0,7.485,0.534,10.692,2.139c11.763,4.812,15.506,10.693,19.248,17.644
	c2.673,4.812,5.881,11.228,18.713,24.06c15.505,14.97,30.475,24.06,42.237,29.94c-11.228-18.713-22.455-37.426-24.594-40.634
	c-3.743-6.95-3.743-11.228-3.743-11.228l-4.276-56.673c-12.832-75.921-49.724-95.704-49.724-95.704l1.07-136.336
	c-43.842-14.436-88.753-21.921-133.664-23.525l9.09,169.485C979.248,238.99,969.624,245.406,950.376,258.238z"/>
<path fill="#59748F" d="M928.455,543.208c2.139,2.673,3.208,5.347,4.277,8.555l38.495-0.535c1.069-3.742,2.674-8.02,3.743-11.763
	c-18.179-5.881-33.684-11.228-41.703-13.9L928.455,543.208z"/>
<path fill="#2D4F70" d="M1010.258,550.693c-2.139-0.535-3.743-1.069-5.882-2.139v2.139H1010.258z"/>
<path fill="#2D4F70" d="M815.109,403.129c0,0.534-0.535,1.069-0.535,1.604c-3.208,8.021-2.673,15.505,0.535,22.456
	c4.277,9.089,12.831,13.9,18.713,16.574c3.207,1.069,5.346,2.139,6.415,2.139l1.604,0.534h1.604c0,0,0.535,0,1.604,0
	c9.624,0,52.931-2.673,90.891-44.376c2.139-2.139,3.743-4.277,5.882-6.416c1.604,7.485,2.673,14.971,2.673,18.713
	c0,6.416-1.604,14.436-2.139,16.574l0,0l0,0l-6.416,24.06c1.604,0,3.743-0.535,5.347-0.535c4.277,0,7.485,0.535,9.624,1.069
	l5.347-20.852c0,0,3.207-10.692,2.673-20.852C958.396,403.129,953.05,378,953.05,378l-9.089-11.763
	c-36.892,63.09-90.357,65.228-98.911,65.228c-0.535,0-1.069,0-1.069,0s-22.456-5.881-16.04-21.386s10.693-4.812,39.03-33.148
	c27.802-28.337,36.891-56.139,41.168-66.297c4.277-10.159,21.921-40.099,41.703-52.931c19.247-12.832,29.406-19.782,29.406-19.782
	l-9.09-168.416c-4.812,0-10.158-0.535-14.97-0.535l9.089,162c-4.813,3.208-12.297,8.02-21.921,14.436
	c-23.524,14.97-42.772,49.188-47.05,59.881c-0.534,1.069-1.069,2.139-1.604,3.742c-4.277,11.229-13.366,34.218-36.892,57.743
	c-7.485,7.485-12.831,11.762-17.108,14.436c-2.674,2.139-5.347,3.208-7.485,4.277C825.268,389.228,819.921,392.436,815.109,403.129z
	"/>
<path fill="#2D4F70" d="M916.158,531.98c4.813,2.673,8.02,5.347,10.158,8.02c1.069,1.069,1.604,2.139,2.139,2.673l4.813-18.178
	c-2.674-1.069-4.813-1.604-5.347-1.604h-0.534h-0.535c-2.674-1.068-4.812-2.673-7.485-4.276L916.158,531.98z"/>
<path fill="#2D4F70" d="M1152.476,324.535l4.276,56.138c0,0-0.534,4.277,3.743,11.229c2.139,3.208,13.366,22.455,24.594,40.633
	c6.416,3.208,11.763,5.347,15.505,6.416c1.604,0.535,2.674,1.069,3.743,1.604c1.069,0.534,2.673,1.069,4.812,2.139
	c-14.971-24.595-33.148-54.535-35.287-58.813c-1.069-1.604-1.604-3.208-1.604-3.742l0,0v-1.069l-4.277-56.139v-0.534v-0.535
	c-10.693-61.485-36.356-89.822-49.723-100.515l1.068-123.505c-4.812-1.604-10.158-3.743-14.97-5.347l-1.069,136.336
	C1102.752,228.832,1139.644,249.148,1152.476,324.535z"/>
<path fill="#2D4F70" d="M1067.465,440.02c-1.604,0-3.207,1.604-3.207,6.951c0,4.277,0,19.782,0,38.495l13.366,3.207l0,0l0,0
	c0,0,4.812,1.069,10.692,2.139c-7.484-24.594-14.436-45.445-14.436-45.445S1070.674,440.02,1067.465,440.02z"/>
<path fill="#2D4F70" d="M1009.188,444.297c-2.139,0-3.743,1.604-4.813,5.881c-0.534,2.674-2.673,9.624-5.881,18.179l20.316,5.347
	v-21.921C1018.277,451.782,1013.465,444.297,1009.188,444.297z"/>
<path fill="#2D4F70" d="M986.732,550.693c0.535-2.139,1.604-4.813,2.139-6.951c-4.812-1.604-9.623-3.207-14.436-4.812
	c-1.604,4.277-2.673,8.02-3.742,11.763H986.732z"/>
<path fill="#59748F" d="M996.356,626.614c-11.228,0-21.921,0-32.079,0c-1.069,3.742-2.139,6.95-3.742,10.692
	C971.228,634.099,984.06,630.356,996.356,626.614z"/>
<path fill="#59748F" d="M990.476,904.099c19.782-12.831,37.426-42.771,41.702-52.931c4.277-10.158,13.367-37.96,41.169-66.297
	c27.802-28.336,32.614-17.108,39.029-33.148c4.277-10.158-3.742-16.039-9.624-19.247c-17.643,10.692-41.702,25.129-56.673,34.218
	c-4.277,2.673-22.99,13.9-40.099,14.97c-3.208,4.277-5.882,8.555-9.09,13.901l-9.623-11.763c0,0-0.535-2.673-1.604-6.95
	c-2.673-2.139-5.347-4.812-6.95-8.02c-6.416-11.228-10.158-27.802,6.416-44.377l5.347-19.781
	c-9.624,2.673-18.713,4.812-27.268,7.484h-0.535h-0.534c-1.069,0-10.693,2.139-21.387,2.139c-1.604,0-3.207,0-4.276,0
	c-1.069,2.674-2.674,4.277-4.277,4.277c-3.208,0-6.416-3.742-8.555-5.881c-16.574-4.813-20.317-16.04-21.386-21.921
	c-3.208-17.644,3.742-31.01,19.781-39.564v-23.524h-0.534c-11.763,0-27.802-2.139-37.96-13.367
	c-3.743-3.742-5.882-8.554-7.485-13.366c0.534,36.356,0.534,104.258,0.534,114.951c0,5.346-1.604,6.95-3.208,6.95
	c-2.673,0-6.95-4.812-6.95-4.812s-35.287-113.882-39.029-125.644c-3.208-10.693-8.021-22.456-22.456-22.456
	c-1.604,0-3.208,0-5.347,0.535c-18.178,3.208-10.158,42.237-10.158,42.237s31.01,116.02,33.148,125.109
	c1.604,6.415-1.604,7.484-3.208,7.484c-0.534,0-1.069,0-1.069,0s-57.207-84.475-62.02-90.356
	c-3.208-4.277-9.089-12.831-19.247-12.831c-3.208,0-7.485,1.069-11.763,3.742c-16.574,9.624,6.95,46.515,6.95,46.515
	s43.842,72.179,47.585,79.129c3.742,6.95,3.742,11.228,3.742,11.228l4.277,56.139c12.831,75.921,49.723,95.703,49.723,95.703
	l-0.535,66.297c42.238,10.693,85.545,16.04,128.852,14.971l-4.812-92.495C961.069,923.881,970.693,916.931,990.476,904.099z"/>
<path fill="#59748F" d="M897.445,542.139c-0.534,0-1.069,0-1.604,0c-23.525,0-20.852,35.287-20.852,35.287s0,1.604,0,4.277
	c4.277-20.852,21.386-29.94,37.96-29.94c0.535,0,1.069,0,1.604,0h1.604C912.95,546.95,907.069,542.673,897.445,542.139z"/>
<path fill="#2D4F70" d="M960.535,637.842c1.068-3.743,2.673-7.485,3.742-10.693c-5.881,0-10.693,0-15.505,0
	c-1.604,5.347-3.743,10.693-5.347,16.04C947.703,641.584,954.119,639.98,960.535,637.842z"/>
<path fill="#2D4F70" d="M931.129,718.574c1.604,0,3.208-1.069,4.277-4.277c-4.813-0.534-9.09-1.069-12.832-2.139
	C924.713,714.297,928.455,718.574,931.129,718.574z"/>
<path fill="#2D4F70" d="M996.356,796.099c2.673-4.812,5.881-9.623,9.089-13.9c-0.534,0-1.604,0-2.139,0
	c-6.95,0-12.831-2.139-18.178-5.347c1.069,4.277,1.604,6.95,1.604,6.95L996.356,796.099z"/>
<path fill="#2D4F70" d="M1102.218,733.01c5.881,3.208,13.901,9.089,9.624,19.248c-6.416,15.505-10.693,4.812-39.03,33.148
	c-27.802,28.336-36.891,56.139-41.168,66.297s-21.921,40.099-41.703,52.931c-19.247,12.831-29.405,19.782-29.405,19.782
	l4.812,92.495c4.812,0,10.158,0,14.97-0.535l-4.812-83.94c4.812-3.208,12.297-8.02,21.921-14.436
	c23.524-14.971,42.772-49.188,47.05-59.881c0.534-1.069,1.069-2.139,1.604-3.743c4.277-11.228,13.366-34.218,36.892-57.742
	c12.831-12.832,19.247-16.04,24.059-18.713c7.485-3.743,13.367-7.485,17.645-19.248c3.207-8.02,2.673-15.505-0.535-22.455
	c-2.139-4.277-5.347-8.02-9.089-10.693C1112.911,726.594,1107.564,729.802,1102.218,733.01z"/>
<path fill="#2D4F70" d="M787.842,837.802l-4.277-56.139c0,0,0.534-4.277-3.742-11.228c-4.277-6.95-47.585-79.129-47.585-79.129
	s-23.524-36.891-6.95-46.515c4.277-2.673,8.02-3.742,11.763-3.742c9.624,0,15.505,8.02,19.247,12.831
	c4.813,5.882,62.02,90.356,62.02,90.356s0.535,0,1.069,0c1.604,0,4.813-1.069,3.208-7.484
	c-1.604-8.555-33.148-125.109-33.148-125.109s-8.02-39.029,10.158-42.237c2.139-0.535,3.743-0.535,5.347-0.535
	c13.901,0,19.248,11.763,22.456,22.456c3.742,12.297,39.029,125.644,39.029,125.644s3.742,4.812,6.951,4.812
	c1.604,0,3.207-1.604,3.207-6.95c0-10.693-0.534-78.595-0.534-114.951c-1.069-3.742-1.604-7.484-1.069-11.762
	c0-2.674,0.534-4.813,1.069-6.951c0-2.673,0-4.277,0-4.277s-3.208-35.287,20.852-35.287c0.534,0,1.069,0,1.604,0
	c10.159,0.535,15.505,4.813,19.248,9.624h16.574c-1.069-2.673-2.674-5.347-4.277-8.555c-0.535-1.069-1.604-2.138-2.139-2.673
	c-2.139-2.673-5.882-5.881-10.158-8.02c-4.813-2.674-10.159-4.277-17.644-4.813c-1.069,0-1.604,0-2.674,0l0,0
	c-6.95,0-13.366,2.139-18.713,5.882c-2.139,1.069-3.742,2.673-5.347,4.812c-2.673,2.674-4.276,5.347-5.881,8.555
	c-2.139,4.812-3.742,9.624-4.812,14.436c-1.604,8.02-1.069,14.971-1.069,17.644s0,13.366,0,27.802c0,4.813,0,10.158,0,15.505
	c0,9.089,0,18.713,0,28.337c-3.208-10.693-6.416-21.386-9.624-30.476c-2.139-6.415-3.742-11.762-5.347-16.574
	c-2.139-7.485-4.277-13.366-4.812-15.505c-2.674-8.02-10.158-33.148-36.356-33.148c-2.674,0-5.347,0-8.021,0.535
	c-6.95,1.069-13.366,5.346-17.643,11.228c-3.209,4.812-5.347,10.692-5.882,17.108c-0.534,5.347-1.069,10.693-0.534,15.505
	c0.534,6.951,1.604,13.366,2.139,16.04v0.534v0.535c4.812,18.713,11.228,41.703,16.574,63.089
	c-11.763-17.108-21.921-31.545-23.525-34.218l-0.534-0.534c-2.139-2.674-5.882-7.485-11.228-11.763
	c-4.813-3.742-11.229-6.416-19.248-6.416c-1.069,0-2.673,0-3.742,0.535c-5.347,0.534-10.158,2.139-15.505,5.347
	c-6.416,3.742-10.693,9.623-12.832,17.108c-1.604,7.485-0.534,16.04,1.604,24.06c3.742,11.762,9.623,21.921,12.297,26.198
	c4.277,6.95,9.623,15.505,14.97,24.594c14.436,23.524,30.476,50.257,32.614,54c1.069,1.604,1.604,3.208,1.604,3.742l0,0v1.069
	l4.277,56.139v0.535v0.534c10.693,61.485,36.356,89.822,49.723,100.515l-0.534,56.139c4.812,1.604,10.158,2.674,14.97,4.277
	l0.535-67.9C838.099,933.505,801.208,913.723,787.842,837.802z"/>
<path fill="#2D4F70" d="M933.802,645.861c0.535,0,1.604-0.534,2.139-0.534v-18.179c-5.881,0-9.624,0-11.228,0
	c-0.535,0-2.139,0-3.742,0v23.524C925.248,649.069,928.99,647.465,933.802,645.861z"/>
<path fill="#2D4F70" d="M990.476,719.644l0.534-0.534c1.069-1.069,5.881-4.277,12.832-9.09l2.673-9.623
	c-5.347,1.604-11.228,3.207-16.574,4.276l-5.347,19.782C986.198,722.852,988.337,721.247,990.476,719.644z"/>
<path fill="#748799" d="M1250.852,496.693c-12.832-19.782-42.772-37.426-52.931-41.703s-37.96-13.366-66.297-41.168
	c-28.337-27.803-17.109-32.614-33.148-39.03c-2.139-0.534-3.743-1.069-5.347-1.069c-11.763,0-16.04,17.109-16.04,17.109
	s-2.673,59.881,65.228,99.979l-11.762,9.624c0,0-25.129,5.881-35.822,5.881c-0.534,0-1.069,0-1.069,0
	c-10.158,0-19.782-2.673-19.782-2.673l-124.574-32.614c0,0-3.742-1.069-8.02-1.069c-6.416,0-15.505,2.139-19.782,13.367
	c-6.95,18.713,10.693,26.197,10.693,26.197s112.812,37.426,126.713,41.169c13.9,4.277-1.604,14.436-1.604,14.436l-143.287,1.604
	c0,0-0.534,0-1.604,0c-4.813,0-22.455,1.604-24.06,23.525c-1.069,20.316,21.921,22.455,31.545,22.455c2.138,0,3.742,0,3.742,0
	s103.723-1.069,132.06-1.069c2.673,0,4.277,0,5.881,0c14.436,0,2.139,9.624,2.139,9.624s-113.881,35.287-125.644,39.029
	c-12.297,3.743-25.129,9.624-21.921,27.802c1.604,9.624,13.366,11.763,24.06,11.763c9.624,0,18.179-1.604,18.179-1.604
	s116.02-31.01,125.108-33.148c1.069,0,2.139-0.535,3.208-0.535c5.347,0,4.277,4.813,4.277,4.813s-84.476,57.207-90.356,62.02
	c-5.882,4.812-18.713,13.9-9.089,30.475c2.673,4.277,6.95,5.882,12.297,5.882c14.436,0,34.218-12.832,34.218-12.832
	s72.178-43.842,79.129-47.584c5.881-3.208,9.624-3.742,11.228-3.742h0.535l56.138-4.277c75.921-12.832,95.703-49.723,95.703-49.723
	l136.337,1.069c10.158-43.842,13.9-88.753,11.762-133.129l-158.257,8.555C1270.634,526.099,1263.684,516.476,1250.852,496.693z"/>
<path fill="#2D4F70" d="M1412.852,665.644c1.069-4.812,2.673-10.158,3.742-14.971l-136.336-1.069c0,0-19.782,36.892-95.703,49.724
	l-56.139,4.276c0,0,0,0-0.535,0c-1.069,0-5.346,0.535-11.228,3.743c-6.95,4.277-79.129,47.584-79.129,47.584
	s-19.782,12.832-34.218,12.832c-5.347,0-9.623-1.604-12.297-5.882c-9.624-16.574,3.208-26.197,9.089-30.475
	c5.882-4.813,90.356-62.021,90.356-62.021s1.069-4.812-4.277-4.812c-1.068,0-1.604,0-3.207,0.534
	c-8.555,1.604-125.109,33.149-125.109,33.149s-8.555,1.604-18.178,1.604c-10.693,0-21.922-2.139-24.06-11.763
	c-3.208-18.178,9.623-24.059,21.921-27.802c12.297-3.742,125.643-39.029,125.643-39.029s12.298-9.624-2.139-9.624
	c-1.068,0-3.207,0-5.881,0c-28.336,0-132.06,1.069-132.06,1.069s-1.604,0-3.742,0c-9.624,0-32.614-2.139-31.545-22.455
	c1.069-21.921,18.713-23.525,24.06-23.525c1.069,0,1.604,0,1.604,0l143.287-1.604c0,0,15.505-10.158,1.604-14.436
	s-126.713-41.169-126.713-41.169s-17.108-7.484-10.692-26.197c3.742-11.229,12.831-13.367,19.781-13.367
	c4.813,0,8.021,1.069,8.021,1.069l124.574,32.614c0,0,9.624,2.673,19.782,2.673c0.534,0,1.069,0,1.069,0
	c10.692-0.534,35.821-5.881,35.821-5.881l11.763-9.624c-68.436-40.099-65.228-99.979-65.228-99.979s4.812-17.109,16.039-17.109
	c1.604,0,3.208,0.535,5.347,1.069c15.505,6.416,4.812,10.693,33.148,39.029c28.337,27.803,56.139,36.892,66.297,41.169
	s40.1,21.921,52.931,41.703c12.832,19.247,19.782,29.405,19.782,29.405l158.258-8.554c-0.535-4.813-0.535-10.159-1.069-14.971
	l-149.703,8.02c-3.208-4.812-8.02-12.297-14.436-21.921c-13.366-20.852-41.168-37.96-55.069-44.91
	c-1.604-1.069-3.743-1.604-4.812-2.139c-1.069-0.535-2.139-1.069-3.743-1.604c-3.742-1.604-9.089-3.742-15.505-6.416
	c-11.762-5.881-27.268-14.97-42.237-29.94c-12.832-12.831-16.04-19.247-18.713-24.06c-3.743-7.484-7.485-13.366-19.247-17.644
	c-3.743-1.604-7.485-2.139-10.693-2.139l0,0c-18.179,0-27.803,17.644-30.476,27.803l-0.534,1.604v1.604
	c0,2.673-2.139,55.604,51.326,98.376c-7.484,1.604-14.97,2.673-18.713,2.673h-1.069c-1.604,0-3.208,0-4.812-0.534
	c-5.881-0.535-10.693-2.139-10.693-2.139l0,0l0,0L1064.792,486l-45.98-12.297l-20.316-5.347l-44.376-11.763
	c-0.535,0-1.604-0.534-2.674-0.534c-2.139-0.535-5.881-1.069-9.623-1.069c-2.139,0-3.743,0-5.347,0.534
	c-3.208,0.535-6.416,1.069-9.09,2.674c-6.95,2.673-12.297,7.485-16.039,14.436c-1.069,2.139-2.139,3.742-2.674,5.881
	c-6.415,18.179,1.069,31.545,10.159,39.564c0.534,0.535,1.069,0.535,1.604,1.069c2.674,1.604,4.813,3.208,7.485,4.277h0.534h0.535
	c0.534,0,2.139,0.534,5.347,1.604c8.02,2.674,24.06,8.021,41.702,13.901c4.813,1.604,9.624,3.208,14.437,4.812
	c5.347,1.604,10.158,3.208,15.505,4.813c2.139,0.534,3.742,1.069,5.881,2.139h-5.881h-17.644h-16.04l-38.495,0.534h-16.574h-1.604
	c-0.535,0-1.069,0-1.604,0c-16.574,0-33.683,9.624-37.96,29.94c-0.535,2.139-1.069,4.813-1.069,6.951c0,4.277,0,8.02,1.069,11.762
	c1.604,4.813,3.742,9.624,7.485,13.366c10.158,10.693,26.197,13.367,37.96,13.367h0.534c1.604,0,3.209,0,3.743,0
	c1.069,0,5.347,0,11.228,0c3.742,0,8.02,0,12.297,0c4.813,0,10.158,0,15.505,0c10.159,0,21.387,0,32.079,0
	c-12.831,3.742-25.128,8.02-35.821,11.228c-6.95,2.139-12.832,3.742-17.644,5.347c-2.674,1.069-5.347,1.604-6.95,2.139
	c-1.069,0.534-1.604,0.534-2.139,0.534c-4.813,1.604-9.089,3.208-12.298,4.812c-16.039,8.555-22.989,21.387-19.781,39.564
	c1.068,5.882,5.346,17.109,21.386,21.921c3.742,1.069,8.02,1.604,12.832,2.139c1.604,0,2.673,0,4.276,0
	c10.693,0,20.317-2.139,21.387-2.139h0.534h0.535c8.555-2.139,17.644-4.812,27.268-7.485c5.347-1.604,11.228-3.208,16.574-4.276
	c6.415-1.604,12.831-3.208,19.247-4.813c-8.02,5.347-15.505,10.693-21.386,14.971c-6.416,4.277-11.228,8.02-12.832,9.089
	l-0.534,0.535c-2.139,1.604-4.277,3.742-5.882,5.346c-16.574,16.575-12.831,32.614-6.415,44.377c2.138,3.208,4.276,5.881,6.95,8.02
	c4.812,3.742,10.692,5.347,18.178,5.347c0.535,0,1.604,0,2.139,0c17.109-1.069,35.822-12.297,40.099-14.971
	c14.971-9.089,39.03-23.524,56.674-34.218c5.347-3.208,10.158-6.416,14.436-8.555c3.742-2.138,6.951-4.276,8.02-4.812
	c1.604-1.069,2.674-1.604,3.743-1.604h0.534h1.069l56.139-4.277h0.535h0.534c61.485-10.693,89.822-36.356,100.516-49.723
	L1412.852,665.644z"/>
<rect x="2170.99" y="399.386" fill="#006400" width="99.445" height="99.446"/>
</svg>
