<?xml version="1.0" encoding="utf-8"?>
<!-- Generator: Adobe Illustrator 16.0.0, SVG Export Plug-In . SVG Version: 6.00 Build 0)  -->
<!DOCTYPE svg PUBLIC "-//W3C//DTD SVG 1.1//EN" "http://www.w3.org/Graphics/SVG/1.1/DTD/svg11.dtd">
<svg version="1.1" id="Layer_1" xmlns="http://www.w3.org/2000/svg" xmlns:xlink="http://www.w3.org/1999/xlink" x="0px" y="0px"
	 width="1920px" height="1080px" viewBox="0 0 1920 1080" enable-background="new 0 0 1920 1080" xml:space="preserve">
<g>
	<g>
		<path fill="#748799" d="M571.237,183.248l748.515,748.515c8.555-8.021,16.575-16.04,24.595-24.595L595.832,158.653
			C587.277,166.673,579.258,174.693,571.237,183.248z"/>
		<path fill="#748799" d="M679.237,94.495l729.268,729.268c6.416-10.159,12.297-20.852,18.179-31.545L710.782,76.852
			C700.089,82.198,689.396,88.079,679.237,94.495z"/>
		<path fill="#748799" d="M898.98,19.109l584.91,584.911c1.604-14.97,2.674-30.475,3.209-45.979L944.961,15.901
			C929.455,15.901,914.485,16.97,898.98,19.109z"/>
		<path fill="#748799" d="M622.029,135.663l745.308,745.308c7.485-9.09,14.436-18.179,21.386-27.803L649.832,114.277
			C640.208,121.228,631.119,128.178,622.029,135.663z"/>
		<path fill="#748799" d="M1117.119,39.96l345.92,345.92c-9.089-28.871-20.851-57.208-34.752-83.94L1201.06,74.713
			C1174.326,60.812,1146.524,49.049,1117.119,39.96z"/>
		<path fill="#748799" d="M995.752,16.97l490.277,490.277c-1.604-19.247-3.742-37.96-6.95-56.138L1051.891,23.921
			C1033.178,20.713,1014.465,18.04,995.752,16.97z"/>
		<path fill="#748799" d="M526.861,237.248l738.891,738.891c9.624-6.95,18.713-13.901,27.803-21.386L548.248,209.445
			C540.763,218.535,533.812,227.624,526.861,237.248z"/>
		<path fill="#748799" d="M743.931,60.812l698.258,698.257c5.347-11.763,9.623-22.99,13.9-35.287L779.218,46.376
			C766.921,50.653,755.158,55.465,743.931,60.812z"/>
		<path fill="#748799" d="M816.644,34.614l651.742,651.743c3.743-12.832,6.951-26.198,9.09-40.099L856.208,25.525
			C842.842,28.198,829.476,30.871,816.644,34.614z"/>
		<path fill="#748799" d="M488.901,298.198l715.9,715.9c10.693-5.881,20.852-11.762,31.545-18.178L507.079,266.653
			C500.663,277.347,494.782,287.505,488.901,298.198z"/>
		<path fill="#748799" d="M487.297,788.476l227.228,227.228c26.733,13.9,54.535,25.663,83.94,34.752l-345.92-345.921
			C461.634,733.94,473.396,761.742,487.297,788.476z"/>
		<path fill="#748799" d="M436.505,639.307l427.188,427.188c18.178,3.208,37.426,5.881,56.139,6.95L429.555,583.168
			C430.624,602.416,433.297,621.129,436.505,639.307z"/>
		<path fill="#748799" d="M428.485,532.911l542.139,542.139c15.505-0.535,31.01-1.604,45.979-3.208L431.158,486.396
			C429.555,501.901,428.485,517.406,428.485,532.911z"/>
		<path fill="#748799" d="M437.574,443.624l621.268,621.267c13.366-2.673,26.732-5.881,40.099-9.089L447.198,404.06
			C443.455,416.891,440.247,430.258,437.574,443.624z"/>
		<path fill="#748799" d="M458.96,366.634l677.406,677.405c11.763-4.276,23.524-9.089,35.287-13.9L472.861,331.347
			C468.05,343.109,463.237,354.871,458.96,366.634z"/>
		<path fill="#59748F" d="M1201.06,74.713l227.228,227.228C1378.029,204.634,1298.366,124.97,1201.06,74.713z"/>
		<path fill="#59748F" d="M1051.891,23.921l427.188,427.188c-3.742-22.456-9.624-43.842-16.04-65.229l-345.92-345.92
			C1095.732,33.544,1074.347,27.664,1051.891,23.921z"/>
		<path fill="#59748F" d="M957.792,15.366c-4.277,0-8.555,0-12.831,0L1487.1,558.04c0-4.277,0-8.555,0-12.832
			c0-12.832-0.535-25.129-1.604-37.961L995.752,16.97C982.921,15.901,970.624,15.366,957.792,15.366z"/>
		<path fill="#59748F" d="M856.208,25.525l621.268,621.267c2.673-13.901,4.812-28.337,6.415-42.772L898.98,19.109
			C884.545,20.178,870.109,22.852,856.208,25.525z"/>
		<path fill="#59748F" d="M779.218,46.376l677.406,677.406c4.277-12.297,8.554-24.594,11.762-37.426L816.644,34.614
			C803.812,38.356,791.515,42.099,779.218,46.376z"/>
		<path fill="#59748F" d="M710.782,76.852l715.366,715.366c5.881-10.693,11.228-21.921,16.04-33.148L743.931,60.812
			C732.703,65.624,721.476,70.97,710.782,76.852z"/>
		<path fill="#59748F" d="M649.832,114.277l738.891,738.891c6.951-9.623,13.366-19.247,19.782-29.405L679.237,94.495
			C669.079,100.911,659.455,107.327,649.832,114.277z"/>
		<path fill="#59748F" d="M595.832,158.653l748.515,748.515c8.02-8.554,15.505-17.108,22.99-26.197L622.029,135.663
			C612.94,143.148,604.386,150.634,595.832,158.653z"/>
		<path fill="#59748F" d="M548.248,209.445l745.307,745.308c9.089-7.485,17.644-14.971,26.197-22.99L571.237,183.248
			C563.218,191.802,555.732,200.356,548.248,209.445z"/>
		<path fill="#59748F" d="M507.079,266.653l729.268,729.268c10.158-6.416,19.782-12.832,29.405-19.782L526.861,237.248
			C519.911,246.871,513.495,257.03,507.079,266.653z"/>
		<path fill="#59748F" d="M472.861,331.347l698.792,698.792c11.228-4.812,22.456-10.158,33.148-16.04l-715.9-715.9
			C483.555,308.891,478.208,320.119,472.861,331.347z"/>
		<path fill="#59748F" d="M447.198,404.06l651.742,651.742c12.832-3.742,25.129-7.485,37.426-11.762L458.96,366.634
			C454.684,378.931,450.406,391.228,447.198,404.06z"/>
		<path fill="#59748F" d="M431.158,486.396l584.911,584.91c14.436-1.604,28.871-3.742,42.772-6.416L437.574,443.624
			C434.901,458.06,432.763,471.96,431.158,486.396z"/>
		<path fill="#59748F" d="M427.95,545.208c0,12.832,0.535,25.129,1.604,37.96l490.277,490.277
			c12.297,1.069,25.129,1.604,37.96,1.604c4.277,0,8.555,0,12.297,0L428.485,532.911C427.95,536.653,427.95,540.931,427.95,545.208z
			"/>
		<path fill="#59748F" d="M452.545,704.534l345.92,345.921c21.387,6.951,43.308,12.297,65.229,16.04L436.505,639.307
			C440.247,661.763,445.594,683.684,452.545,704.534z"/>
		<path fill="#59748F" d="M714.524,1015.703L487.297,788.476C537.555,885.782,617.218,965.445,714.524,1015.703z"/>
	</g>
	<path fill="#2D4F70" d="M961,70.436c259.842,0,471.564,211.723,471.564,471.564S1220.842,1013.564,961,1013.564
		S489.436,801.842,489.436,542S701.158,70.436,961,70.436 M961,7.347C665.871,7.347,426.347,246.871,426.347,542
		S665.871,1076.653,961,1076.653S1495.653,837.129,1495.653,542S1256.129,7.347,961,7.347L961,7.347z"/>
</g>
<g id="Layer_3">
</g>
<g>
	<path fill="none" d="M1158.891,629.822l-19.247-3.743l-68.971,259.842c-0.534,2.673-1.604,4.812-2.673,6.95h95.703
		c-3.208-5.347-5.347-11.762-5.347-18.713V629.822H1158.891L1158.891,629.822z"/>
	<path fill="none" d="M783.564,626.079l-19.248,3.743v244.336c0,6.951-2.139,13.366-5.346,18.713h95.703
		c-1.07-2.139-2.139-4.812-2.674-6.95L783.564,626.079z"/>
	<path fill="none" d="M1001.168,867.208l67.901-256.634l35.287-184.99c-6.416-0.534-10.158-1.069-10.158-1.069
		c-3.208-0.534-6.416-1.069-9.089-2.673c-4.277-2.139-87.684-44.911-122.971-115.485
		c-35.287,70.574-118.693,113.347-122.971,115.485c-2.673,1.604-5.881,2.139-9.089,2.673c0,0-3.742,0.535-10.158,1.069
		l35.287,184.99l67.901,256.634c2.139,9.089,1.068,18.178-2.674,25.663h83.94C1000.099,885.386,998.495,876.297,1001.168,867.208z"
		/>
	<circle fill="#2D4F70" cx="735.98" cy="291.921" r="67.901"/>
	<path fill="#2D4F70" d="M764.316,874.158V629.822l19.248-3.743l68.971,259.842c0.534,2.673,1.604,4.812,2.673,6.95h64.693
		c3.742-7.484,5.347-16.574,2.673-25.663l-67.9-256.634l-35.287-184.99c6.415-0.534,10.158-1.069,10.158-1.069
		c3.207-0.534,6.416-1.069,9.089-2.673c4.277-2.139,87.683-44.911,122.97-115.485c-5.881-11.762-10.692-24.594-13.366-37.96
		c-2.139-11.762,3.208-22.456,13.366-27.802c-2.139-1.069-4.812-2.139-7.484-2.673c-14.436-2.673-28.337,6.416-31.01,20.852
		c-11.229,59.347-86.08,104.257-104.258,114.416c-16.04,1.604-67.901,7.484-139.545,18.178c-4.812,0.535-9.089,2.674-12.831,5.347
		c-116.555,94.099-63.624,265.723-60.951,272.673c3.743,11.229,13.901,18.179,25.129,18.179c2.673,0,5.347-0.535,8.02-1.069
		c13.901-4.277,21.387-19.247,17.109-33.148c-0.534-1.069-31.01-102.119,10.693-176.436l25.663,134.198
		c-0.535,2.139-0.535,3.742-0.535,5.881v257.168c0,6.951,2.139,13.366,5.347,18.713h62.021
		C762.713,887.524,764.316,881.109,764.316,874.158z"/>
	<circle fill="#2D4F70" cx="1187.228" cy="291.921" r="67.901"/>
	<path fill="#2D4F70" d="M948.772,268.931c2.673,13.366,7.485,26.198,13.366,37.96c35.287,70.574,118.693,113.347,122.971,115.485
		c2.673,1.604,5.881,2.139,9.089,2.674c0,0,3.742,0.534,10.158,1.069l-35.287,184.99l-67.901,256.633
		c-2.139,9.09-1.068,18.179,2.674,25.664h64.693c1.068-2.139,2.139-4.813,2.673-6.951l68.97-259.841l19.248,3.742v244.337
		c0,6.95,2.139,13.366,5.347,18.713h62.02c3.208-5.347,5.347-11.763,5.347-18.713V617.524c0-2.139,0-4.277-0.535-5.881
		l25.664-134.198c42.237,74.317,11.228,175.366,10.693,176.436c-4.277,13.901,3.207,28.871,17.108,33.148
		c2.673,1.069,5.347,1.069,8.02,1.069c11.228,0,21.387-6.95,25.129-18.178c2.139-7.485,55.069-178.574-60.95-272.674
		c-3.742-3.207-8.02-4.812-12.832-5.346c-71.108-10.693-122.971-16.574-139.545-18.179
		c-18.178-10.158-92.494-55.069-104.257-114.416c-2.673-14.436-16.574-23.524-31.01-20.851c-2.674,0.535-5.347,1.604-7.485,2.673
		C951.98,245.94,946.099,257.168,948.772,268.931z"/>
	<path fill="#2D4F70" d="M1226.258,892.871h-62.021h-95.702h-64.693h-83.94h-64.693h-96.237h-61.485H572.376
		c95.703,105.327,234.179,171.09,387.624,171.09s291.921-66.298,387.624-171.09H1226.258z"/>
</g>
</svg>
