<?xml version="1.0" encoding="utf-8"?>
<!-- Generator: Adobe Illustrator 16.0.0, SVG Export Plug-In . SVG Version: 6.00 Build 0)  -->
<!DOCTYPE svg PUBLIC "-//W3C//DTD SVG 1.1//EN" "http://www.w3.org/Graphics/SVG/1.1/DTD/svg11.dtd">
<svg version="1.1" id="Layer_1" xmlns="http://www.w3.org/2000/svg" xmlns:xlink="http://www.w3.org/1999/xlink" x="0px" y="0px"
	 width="168.25px" height="150.303px" viewBox="-6.25 -7.75 168.25 150.303" enable-background="new -6.25 -7.75 168.25 150.303"
	 xml:space="preserve">
<g>
	<path fill-opacity="0" stroke="#4F6B85" stroke-width="24" stroke-miterlimit="10" d="M53.831,81.011
		c-8.866-15.316-14.905-30.817-17.423-43.684c-3.033-15.502-0.889-27.354,5.219-30.89c6.365-3.685,18.407,0.589,31.041,11.808
		c9.553,8.481,19.361,21.239,27.778,35.778c8.63,14.907,15.098,30.009,17.613,42.718c3.184,16.084,0.607,28.373-5.637,31.987
		c-6.059,3.507-17.144-0.206-28.965-10.378C73.471,109.755,62.785,96.476,53.831,81.011z"/>
	<g id="Background">
		<rect x="2.38" y="0.483" fill-opacity="0" width="39.412" height="35.208"/>
	</g>
	<path fill="#4F6B85" d="M90.32,67.386c0,7.279-5.901,13.182-13.182,13.182c-7.279,0-13.181-5.902-13.181-13.182
		c0-7.28,5.901-13.182,13.181-13.182C84.419,54.204,90.32,60.105,90.32,67.386z"/>
	<path fill-opacity="0" stroke="#4F6B85" stroke-width="24" stroke-miterlimit="10" d="M77.139,40.586
		c17.698,0,34.138,2.539,46.534,6.807c14.936,5.142,24.119,12.936,24.119,19.993c0,7.354-9.732,15.634-25.771,20.948
		c-12.126,4.018-28.082,6.114-44.882,6.114c-17.224,0-33.534-1.969-45.794-6.158C15.831,82.987,6.486,74.6,6.486,67.386
		c0-7,8.768-14.734,23.493-19.868C42.422,43.18,59.269,40.586,77.139,40.586z"/>
	<path fill-opacity="0" stroke="#4F6B85" stroke-width="24" stroke-miterlimit="10" d="M53.809,54.063
		c8.842-15.33,19.255-28.304,29.144-36.91C94.868,6.783,106.208,2.722,112.321,6.247c6.371,3.674,8.682,16.241,5.272,32.789
		c-2.577,12.512-8.732,27.382-17.125,41.936c-8.604,14.92-18.458,28.065-28.213,36.593c-12.344,10.79-24.277,14.694-30.527,11.091
		c-6.063-3.497-8.383-14.955-5.474-30.277C38.713,85.433,44.881,69.544,53.809,54.063z"/>
</g>
</svg>
